<svg width="26" height="20" viewBox="0 0 26 20" fill="none" xmlns="http://www.w3.org/2000/svg">
<path d="M11.2338 19.5413C11.2338 19.5413 9.62891 19.5413 9.62891 17.9705C9.62891 16.3996 11.2338 11.6872 17.6535 11.6872C24.0732 11.6872 25.6781 16.3996 25.6781 17.9705C25.6781 19.5413 24.0732 19.5413 24.0732 19.5413H11.2338ZM17.6535 10.1163C18.9304 10.1163 20.1551 9.61985 21.058 8.73609C21.961 7.85233 22.4682 6.6537 22.4682 5.40387C22.4682 4.15405 21.961 2.95542 21.058 2.07166C20.1551 1.1879 18.9304 0.691406 17.6535 0.691406C16.3765 0.691406 15.1519 1.1879 14.2489 2.07166C13.346 2.95542 12.8387 4.15405 12.8387 5.40387C12.8387 6.6537 13.346 7.85233 14.2489 8.73609C15.1519 9.61985 16.3765 10.1163 17.6535 10.1163Z" fill="#747474"/>
<path fill-rule="evenodd" clip-rule="evenodd" d="M8.37123 19.5404C8.13331 19.05 8.01466 18.5124 8.02457 17.9696C8.02457 15.8412 9.11591 13.6499 11.1317 12.1262C10.1256 11.8228 9.07731 11.6744 8.02457 11.6864C1.60491 11.6864 0 16.3988 0 17.9696C0 19.5404 1.60491 19.5404 1.60491 19.5404H8.37123Z" fill="#747474"/>
<path d="M7.21935 10.1171C8.28349 10.1171 9.30404 9.7033 10.0565 8.96683C10.809 8.23036 11.2317 7.23148 11.2317 6.18995C11.2317 5.14842 10.809 4.14954 10.0565 3.41307C9.30404 2.67659 8.28349 2.26285 7.21935 2.26285C6.15522 2.26285 5.13467 2.67659 4.38221 3.41307C3.62976 4.14954 3.20703 5.14842 3.20703 6.18995C3.20703 7.23148 3.62976 8.23036 4.38221 8.96683C5.13467 9.7033 6.15522 10.1171 7.21935 10.1171Z" fill="#747474"/>
</svg>
