<svg width="70" height="52" viewBox="0 0 70 52" fill="none" xmlns="http://www.w3.org/2000/svg">
<path d="M0 26C0 11.6406 11.6406 0 26 0H44C58.3594 0 70 11.6406 70 26V26C70 40.3594 58.3594 52 44 52H26C11.6406 52 0 40.3594 0 26V26Z" fill="#FF4F5A"/>
<path d="M37.7029 29.5736C36.1412 30.8788 34.1609 31.509 32.1689 31.3346C30.1769 31.1602 28.3243 30.1945 26.9917 28.6359C25.659 27.0774 24.9474 25.0441 25.003 22.9539C25.0587 20.8636 25.8773 18.8749 27.2908 17.3963C28.7043 15.9177 30.6053 15.0614 32.6035 15.0032C34.6017 14.945 36.5454 15.6894 38.0353 17.0834C39.5253 18.4775 40.4484 20.4154 40.6151 22.4992C40.7818 24.583 40.1794 26.6545 38.9317 28.2882L45.6023 35.2644C45.7655 35.4351 45.8571 35.6666 45.8571 35.908C45.8571 36.1494 45.7655 36.3809 45.6023 36.5516C45.4391 36.7223 45.2178 36.8182 44.987 36.8182C44.7563 36.8182 44.5349 36.7223 44.3718 36.5516L37.7047 29.5736H37.7029ZM38.9039 23.1811C38.9039 22.3455 38.7466 21.518 38.4409 20.746C38.1352 19.9739 37.6871 19.2724 37.1222 18.6815C36.5573 18.0906 35.8867 17.6219 35.1487 17.3021C34.4107 16.9823 33.6196 16.8177 32.8208 16.8177C32.0219 16.8177 31.2309 16.9823 30.4929 17.3021C29.7548 17.6219 29.0842 18.0906 28.5194 18.6815C27.9545 19.2724 27.5064 19.9739 27.2007 20.746C26.895 21.518 26.7377 22.3455 26.7377 23.1811C26.7377 24.8688 27.3786 26.4874 28.5194 27.6808C29.6602 28.8741 31.2074 29.5446 32.8208 29.5446C34.4341 29.5446 35.9814 28.8741 37.1222 27.6808C38.263 26.4874 38.9039 24.8688 38.9039 23.1811V23.1811Z" fill="white"/>
</svg>
