<svg width="30" height="30" viewBox="0 0 30 30" fill="none" xmlns="http://www.w3.org/2000/svg">
<path d="M25.5614 25.5617H21.1164V18.6004C21.1164 16.9405 21.0867 14.8035 18.8045 14.8035C16.4893 14.8035 16.1351 16.6122 16.1351 18.4796V25.5612H11.6902V11.2461H15.9573V13.2024H16.0171C16.4441 12.4722 17.0612 11.8715 17.8026 11.4643C18.5441 11.0571 19.3821 10.8586 20.2274 10.8899C24.7327 10.8899 25.5633 13.8534 25.5633 17.7086L25.5614 25.5617ZM6.67453 9.2894C5.24988 9.28964 4.09477 8.13487 4.09453 6.71022C4.0943 5.28558 5.24895 4.13046 6.6736 4.13022C8.09824 4.12987 9.25336 5.28464 9.2536 6.70929C9.25372 7.39343 8.98207 8.04961 8.49841 8.53347C8.01474 9.01733 7.35868 9.28925 6.67453 9.2894ZM8.89711 25.5618H4.44738V11.2461H8.89699V25.5617L8.89711 25.5618ZM27.7774 0.00206135H2.21379C1.00559 -0.0115324 0.0147656 0.956319 0 2.16452V27.8348C0.0142969 29.0436 1.005 30.0124 2.21367 29.9997H27.7774C28.9887 30.0147 29.9832 29.0459 30 27.8348V2.16253C29.9828 0.951983 28.9881 -0.0157511 27.7774 6.9167e-05" fill="#0A66C2"/>
</svg>
