<svg width="21" height="22" viewBox="0 0 21 22" fill="none" xmlns="http://www.w3.org/2000/svg">
<path d="M12.7029 14.5736C11.1412 15.8788 9.16092 16.509 7.16891 16.3346C5.17689 16.1602 3.32432 15.1945 1.99166 13.6359C0.658995 12.0774 -0.0525945 10.0441 0.00303186 7.95387C0.0586582 5.86359 0.877278 3.87494 2.29077 2.39632C3.70426 0.9177 5.60532 0.061361 7.60352 0.00317156C9.60172 -0.0550179 11.5454 0.689359 13.0353 2.08343C14.5253 3.4775 15.4484 5.41543 15.6151 7.49923C15.7818 9.58303 15.1794 11.6545 13.9317 13.2882L20.6023 20.2644C20.7655 20.4351 20.8571 20.6666 20.8571 20.908C20.8571 21.1494 20.7655 21.3809 20.6023 21.5516C20.4391 21.7223 20.2178 21.8182 19.987 21.8182C19.7563 21.8182 19.5349 21.7223 19.3718 21.5516L12.7047 14.5736H12.7029ZM13.9039 8.18114C13.9039 7.34549 13.7466 6.51801 13.4409 5.74597C13.1352 4.97392 12.6871 4.27243 12.1222 3.68153C11.5573 3.09063 10.8867 2.62191 10.1487 2.30211C9.41066 1.98232 8.61963 1.81773 7.82078 1.81773C7.02194 1.81773 6.23091 1.98232 5.49287 2.30211C4.75484 2.62191 4.08424 3.09063 3.51937 3.68153C2.9545 4.27243 2.50642 4.97392 2.20071 5.74597C1.89501 6.51801 1.73766 7.34549 1.73766 8.18114C1.73766 9.86883 2.37856 11.4874 3.51937 12.6808C4.66017 13.8741 6.20744 14.5446 7.82078 14.5446C9.43413 14.5446 10.9814 13.8741 12.1222 12.6808C13.263 11.4874 13.9039 9.86883 13.9039 8.18114Z" fill="white"/>
</svg>
